HIERARCHY
ROOT Hips
{
	OFFSET -0.001795 -0.223333 0.028219
	CHANNELS 6 Xposition Yposition Zposition Zrotation Yrotation Xrotation 
	JOINT LeftUpLeg
	{
		OFFSET 0.069520 -0.091406 -0.006815
		CHANNELS 3 Zrotation Yrotation Xrotation
		JOINT LeftLeg
		{
			OFFSET 0.034277 -0.375199 -0.004496
			CHANNELS 3 Zrotation Yrotation Xrotation
			JOINT LeftFoot
			{
				OFFSET -0.013596 -0.397961 -0.043693
				CHANNELS 3 Zrotation Yrotation Xrotation
				JOINT LeftToe
				{
					OFFSET 0.026358 -0.055791 0.119288
					CHANNELS 3 Zrotation Yrotation Xrotation
					End Site
					{
						OFFSET 0.000000 0.000000 0.000000
					}
				}
			}
		}
	}
	JOINT RightUpLeg
	{
		OFFSET -0.067670 -0.090522 -0.004320
		CHANNELS 3 Zrotation Yrotation Xrotation
		JOINT RightLeg
		{
			OFFSET -0.038290 -0.382569 -0.008850
			CHANNELS 3 Zrotation Yrotation Xrotation
			JOINT RightFoot
			{
				OFFSET 0.015774 -0.398415 -0.042312
				CHANNELS 3 Zrotation Yrotation Xrotation
				JOINT RightToe
				{
					OFFSET -0.025372 -0.048144 0.123348
					CHANNELS 3 Zrotation Yrotation Xrotation
					End Site
					{
						OFFSET 0.000000 0.000000 0.000000
					}
				}
			}
		}
	}
	JOINT Spine
	{
		OFFSET -0.002533 0.108963 -0.026696
		CHANNELS 3 Zrotation Yrotation Xrotation
		JOINT Spine1
		{
			OFFSET 0.005487 0.135180 0.001092
			CHANNELS 3 Zrotation Yrotation Xrotation
			JOINT Spine2
			{
				OFFSET 0.001457 0.052922 0.025425
				CHANNELS 3 Zrotation Yrotation Xrotation
				JOINT Neck
				{
					OFFSET -0.002778 0.213870 -0.042857
					CHANNELS 3 Zrotation Yrotation Xrotation
					JOINT Head
					{
						OFFSET 0.005152 0.064970 0.051349
						CHANNELS 3 Zrotation Yrotation Xrotation
						End Site
						{
							OFFSET 0.000000 0.000000 0.000000
						}
					}
				}
				JOINT LeftShoulder
				{
					OFFSET 0.078845 0.121749 -0.034090
					CHANNELS 3 Zrotation Yrotation Xrotation
					JOINT LeftArm
					{
						OFFSET 0.090977 0.030469 -0.008868
						CHANNELS 3 Zrotation Yrotation Xrotation
						JOINT LeftForeArm
						{
							OFFSET 0.259612 -0.012772 -0.027456
							CHANNELS 3 Zrotation Yrotation Xrotation
							JOINT LeftHand
							{
								OFFSET 0.249234 0.008986 -0.001171
								CHANNELS 3 Zrotation Yrotation Xrotation
								End Site
								{
									OFFSET 0.000000 0.000000 0.000000
								}
							}
						}
					}
				}
				JOINT RightShoulder
				{
					OFFSET -0.081759 0.118833 -0.038615
					CHANNELS 3 Zrotation Yrotation Xrotation
					JOINT RightArm
					{
						OFFSET -0.096012 0.032551 -0.009143
						CHANNELS 3 Zrotation Yrotation Xrotation
						JOINT RightForeArm
						{
							OFFSET -0.253742 -0.013329 -0.021401
							CHANNELS 3 Zrotation Yrotation Xrotation
							JOINT RightHand
							{
								OFFSET -0.255298 0.007772 -0.005559
								CHANNELS 3 Zrotation Yrotation Xrotation
								End Site
								{
									OFFSET 0.000000 0.000000 0.000000
								}
							}
						}
					}
				}
			}
		}
	}
}
MOTION
Frames: 12
Frame Time: 0.050000
0.000000 0.964687 0.000000 2.264787 -3.505700 1.987253 -1.380124 -0.758987 -7.474583 -2.497749 0.278396 1.403028 1.859029 7.395344 12.698904 0.000000 0.000000 0.000000 -6.667110 0.514634 -6.564703 5.074760 -0.498969 5.871498 -6.792468 -18.931512 29.919021 0.000000 0.000000 0.000000 9.142452 -3.360330 28.838946 -6.096367 2.104370 -20.312871 4.750987 11.814140 25.721971 15.304630 -10.949375 -9.204321 0.000000 0.000000 0.000000 -22.352972 -13.471017 3.454177 -49.206193 -7.593757 -4.300460 -14.915698 -46.210318 7.765172 0.000000 0.000000 0.000000 26.577495 10.328106 8.459079 29.455409 28.508625 0.612584 -15.454409 20.602144 -1.452455 0.000000 0.000000 0.000000 
0.002648 0.965100 -0.000135 2.277912 -2.703708 2.342976 -1.604003 -0.730751 -7.103582 -2.526215 0.287019 0.351500 1.430083 6.677490 12.177790 0.000000 0.000000 0.000000 -7.134592 0.515642 -7.046881 5.657502 -0.605044 6.590196 -6.861751 -18.860227 29.354784 0.000000 0.000000 0.000000 10.277709 -3.713288 28.525032 -5.735980 2.008777 -20.608762 4.673099 13.195140 26.144069 17.436793 -13.078810 -8.280762 0.000000 0.000000 0.000000 -22.038130 -14.640733 3.571401 -49.017385 -7.131222 -4.383354 -15.678509 -45.838391 7.774548 0.000000 0.000000 0.000000 26.140330 10.019325 8.800794 27.901828 27.321736 0.047472 -14.542272 22.621250 -1.489924 0.000000 0.000000 0.000000 
0.005153 0.965875 -0.000068 2.459996 -2.567072 1.934456 -1.613863 -0.780035 -7.555404 -2.832533 0.307796 2.495399 0.950950 5.580644 10.947658 0.000000 0.000000 0.000000 -7.363641 0.456250 -5.821121 5.691802 -0.606267 5.473475 -7.140755 -19.163233 28.722078 0.000000 0.000000 0.000000 10.491726 -3.760733 28.487052 -5.575313 1.992291 -19.808369 4.393578 14.053798 24.733653 18.685352 -13.631881 -9.271434 0.000000 0.000000 0.000000 -21.284145 -14.524437 3.214625 -50.258952 -7.017476 -4.398968 -16.860246 -44.591878 7.866159 0.000000 0.000000 0.000000 26.581124 9.681502 8.921773 26.357138 26.945456 -0.169615 -13.326069 22.460981 -1.315584 0.000000 0.000000 0.000000 
0.007492 0.966143 0.000414 2.476077 -2.768599 1.124565 -1.989155 -0.719717 -6.767182 -2.855958 0.310696 2.962993 1.488081 6.300368 10.319749 0.000000 0.000000 0.000000 -7.696272 0.418486 -5.094061 5.971634 -0.640056 5.067281 -7.631847 -19.851092 30.823628 0.000000 0.000000 0.000000 11.020666 -3.950531 29.241161 -5.922972 2.096753 -19.808850 4.574188 14.496244 25.023493 19.739186 -13.966376 -10.717654 0.000000 0.000000 0.000000 -21.641277 -15.290373 3.497278 -50.293950 -7.061959 -4.344180 -15.653316 -45.612647 7.510090 0.000000 0.000000 0.000000 25.828385 9.259199 8.574762 26.784952 26.346856 -0.209065 -13.780160 23.765199 -1.462595 0.000000 0.000000 0.000000 
0.009693 0.966824 0.001462 2.386606 -2.684352 0.934099 -1.947930 -0.740126 -6.973094 -2.818352 0.299933 3.782360 1.233814 5.875040 10.305959 0.000000 0.000000 0.000000 -7.594721 0.383276 -4.163499 5.489815 -0.569170 4.174698 -6.826018 -18.842233 30.395829 0.000000 0.000000 0.000000 11.033809 -3.961137 29.273276 -5.610167 2.008401 -19.938618 4.701336 13.901751 24.661380 19.613759 -13.603541 -11.400899 0.000000 0.000000 0.000000 -21.497773 -14.689846 3.338712 -50.689104 -6.986319 -4.442566 -15.621366 -45.708927 7.584281 0.000000 0.000000 0.000000 25.757749 8.880622 8.116073 27.244009 25.706288 -0.218146 -13.486908 24.570551 -1.464598 0.000000 0.000000 0.000000 
0.012213 0.967368 0.002946 2.325648 -2.859243 0.988631 -1.896498 -0.734189 -6.941859 -2.993419 0.326746 4.065945 1.163055 5.611478 9.841066 0.000000 0.000000 0.000000 -7.546214 0.378232 -3.880497 4.889200 -0.486009 3.940812 -5.732363 -17.487372 29.854518 0.000000 0.000000 0.000000 11.033193 -3.846275 28.485850 -5.605339 1.999471 -20.050966 4.257832 13.266941 24.624771 19.253826 -13.509425 -11.055945 0.000000 0.000000 0.000000 -21.236168 -14.907968 3.723082 -50.779188 -7.815994 -4.205110 -14.064514 -45.621601 7.032073 0.000000 0.000000 0.000000 25.835515 8.452169 7.610694 28.914031 24.476599 -0.279293 -13.600579 26.140768 -1.561302 0.000000 0.000000 0.000000 
0.015418 0.967522 0.005015 2.132824 -3.392122 1.031237 -1.676605 -0.707812 -6.793807 -2.926990 0.322594 3.884298 0.829811 5.046075 10.069058 0.000000 0.000000 0.000000 -7.172588 0.378795 -3.639354 4.173750 -0.387281 3.561147 -5.375560 -17.116136 29.643053 0.000000 0.000000 0.000000 10.613145 -3.578600 27.538058 -5.585845 1.963064 -20.668389 4.165444 12.148422 24.918927 18.911306 -13.255004 -11.390038 0.000000 0.000000 0.000000 -21.838254 -14.976223 4.200682 -49.726293 -8.540589 -3.930872 -12.507044 -45.271518 6.529042 0.000000 0.000000 0.000000 26.460722 7.848566 6.882217 31.059738 22.538334 -0.524136 -12.326190 28.757784 -1.424582 0.000000 0.000000 0.000000 
0.019593 0.967509 0.007415 1.991721 -4.358497 1.362847 -1.540895 -0.722897 -7.011079 -3.033332 0.348908 3.780590 0.850050 5.064946 10.399249 0.000000 0.000000 0.000000 -7.060104 0.405474 -3.778045 3.700398 -0.318808 3.285319 -4.835903 -16.543557 28.969089 0.000000 0.000000 0.000000 9.963322 -3.212587 26.310664 -5.371493 1.882868 -20.430401 2.849866 11.186245 24.522072 18.454247 -13.197869 -10.789826 0.000000 0.000000 0.000000 -21.734034 -15.168158 4.784619 -48.641848 -10.295962 -3.250042 -9.322922 -44.448109 5.267398 0.000000 0.000000 0.000000 27.296747 7.132481 6.021867 34.073279 20.925566 -0.645210 -11.234886 30.355488 -1.199671 0.000000 0.000000 0.000000 
0.024405 0.967022 0.010253 1.709053 -5.272122 1.514561 -1.481728 -0.699057 -6.806879 -2.871780 0.333691 3.430991 0.903590 5.056119 10.403444 0.000000 0.000000 0.000000 -6.918403 0.426704 -3.912572 3.426110 -0.275947 3.286389 -4.560449 -16.321519 28.660924 0.000000 0.000000 0.000000 9.321807 -2.920446 25.512009 -5.911461 1.983223 -21.226694 2.939733 9.860074 25.068458 17.362980 -12.553104 -10.605765 0.000000 0.000000 0.000000 -21.779255 -15.424232 5.551687 -47.861272 -12.623262 -2.520902 -7.051839 -42.993729 4.414068 0.000000 0.000000 0.000000 27.286608 6.184135 4.764715 37.022931 19.016097 -0.906997 -9.188046 31.536446 -0.715553 0.000000 0.000000 0.000000 
0.029515 0.966540 0.013354 1.466800 -6.462137 1.679097 -1.375458 -0.707899 -6.954545 -2.781564 0.330973 3.364540 0.965921 5.194636 11.082969 0.000000 0.000000 0.000000 -6.949292 0.453226 -4.015088 3.079118 -0.221030 3.395951 -3.484193 -15.021495 27.607842 0.000000 0.000000 0.000000 8.367097 -2.531455 24.421120 -5.573910 1.867259 -20.868215 1.731392 8.963166 24.941343 16.172174 -11.705112 -10.521157 0.000000 0.000000 0.000000 -21.901949 -15.758806 6.240966 -46.605961 -15.348954 -1.562457 -4.019782 -41.719684 3.260996 0.000000 0.000000 0.000000 28.215663 5.660958 3.892008 39.352953 17.259760 -1.190862 -6.928100 32.530743 -0.163075 0.000000 0.000000 0.000000 
0.034505 0.965994 0.016888 0.973339 -7.598673 1.513068 -1.214617 -0.650160 -6.445967 -2.614655 0.315868 3.200774 1.349507 5.700098 11.016864 0.000000 0.000000 0.000000 -6.770355 0.453896 -3.721895 3.093855 -0.208695 3.584879 -2.921407 -14.318432 26.498758 0.000000 0.000000 0.000000 7.550299 -2.244648 23.918509 -5.845483 1.915695 -20.931933 1.187107 7.904224 25.093293 15.141851 -11.186447 -9.953644 0.000000 0.000000 0.000000 -21.649209 -16.612780 7.265609 -45.803451 -18.260955 -0.634367 -0.737990 -40.979715 2.139847 0.000000 0.000000 0.000000 28.555132 4.958755 2.777756 41.907673 15.130784 -1.633400 -3.434234 32.871130 0.736427 0.000000 0.000000 0.000000 
0.039025 0.965934 0.020370 0.534288 -9.087486 1.099254 -0.917624 -0.578801 -5.844749 -2.451950 0.303531 3.042404 1.506966 5.973191 11.873538 0.000000 0.000000 0.000000 -6.376537 0.429972 -2.991000 2.841800 -0.166168 3.614119 -2.468908 -13.661535 24.683419 0.000000 0.000000 0.000000 6.445354 -1.885787 23.351474 -6.138910 1.963320 -20.810406 0.168046 7.086320 25.479978 13.424793 -10.294463 -8.681853 0.000000 0.000000 0.000000 -21.547458 -17.701733 8.410565 -43.499961 -21.650593 0.333230 3.573367 -39.660564 0.623297 0.000000 0.000000 0.000000 29.729967 5.236663 2.299254 43.668660 13.140697 -2.135832 -0.844686 33.346908 1.392527 0.000000 0.000000 0.000000 
